<svg width="125.5mm" height="84.5mm" viewBox="0 0 125.5 84.5" xmlns="http://www.w3.org/2000/svg"><g id="svgGroup" stroke-linecap="round" fill-rule="evenodd" font-size="9pt" stroke="#000" stroke-width="0.25mm" fill="none" style="stroke:#000;stroke-width:0.25mm;fill:none"><path d="M 0.5 84.5 L 17 84.5 A 0.5 0.5 0 0 0 17.5 84 L 17.5 68.5 A 0.5 0.5 0 0 0 17 68 L 0.5 68 A 0.5 0.5 0 0 0 0 68.5 L 0 84 A 0.5 0.5 0 0 0 0.5 84.5 Z M 0.5 67.5 L 17 67.5 A 0.5 0.5 0 0 0 17.5 67 L 17.5 51.5 A 0.5 0.5 0 0 0 17 51 L 0.5 51 A 0.5 0.5 0 0 0 0 51.5 L 0 67 A 0.5 0.5 0 0 0 0.5 67.5 Z M 0.5 50.5 L 17 50.5 A 0.5 0.5 0 0 0 17.5 50 L 17.5 34.5 A 0.5 0.5 0 0 0 17 34 L 0.5 34 A 0.5 0.5 0 0 0 0 34.5 L 0 50 A 0.5 0.5 0 0 0 0.5 50.5 Z M 0.5 33.5 L 17 33.5 A 0.5 0.5 0 0 0 17.5 33 L 17.5 17.5 A 0.5 0.5 0 0 0 17 17 L 0.5 17 A 0.5 0.5 0 0 0 0 17.5 L 0 33 A 0.5 0.5 0 0 0 0.5 33.5 Z M 0.5 16.5 L 17 16.5 A 0.5 0.5 0 0 0 17.5 16 L 17.5 0.5 A 0.5 0.5 0 0 0 17 0 L 0.5 0 A 0.5 0.5 0 0 0 0 0.5 L 0 16 A 0.5 0.5 0 0 0 0.5 16.5 Z M 18.5 84.5 L 35 84.5 A 0.5 0.5 0 0 0 35.5 84 L 35.5 68.5 A 0.5 0.5 0 0 0 35 68 L 18.5 68 A 0.5 0.5 0 0 0 18 68.5 L 18 84 A 0.5 0.5 0 0 0 18.5 84.5 Z M 18.5 67.5 L 35 67.5 A 0.5 0.5 0 0 0 35.5 67 L 35.5 51.5 A 0.5 0.5 0 0 0 35 51 L 18.5 51 A 0.5 0.5 0 0 0 18 51.5 L 18 67 A 0.5 0.5 0 0 0 18.5 67.5 Z M 18.5 50.5 L 35 50.5 A 0.5 0.5 0 0 0 35.5 50 L 35.5 34.5 A 0.5 0.5 0 0 0 35 34 L 18.5 34 A 0.5 0.5 0 0 0 18 34.5 L 18 50 A 0.5 0.5 0 0 0 18.5 50.5 Z M 18.5 33.5 L 35 33.5 A 0.5 0.5 0 0 0 35.5 33 L 35.5 17.5 A 0.5 0.5 0 0 0 35 17 L 18.5 17 A 0.5 0.5 0 0 0 18 17.5 L 18 33 A 0.5 0.5 0 0 0 18.5 33.5 Z M 18.5 16.5 L 35 16.5 A 0.5 0.5 0 0 0 35.5 16 L 35.5 0.5 A 0.5 0.5 0 0 0 35 0 L 18.5 0 A 0.5 0.5 0 0 0 18 0.5 L 18 16 A 0.5 0.5 0 0 0 18.5 16.5 Z M 36.5 84.5 L 53 84.5 A 0.5 0.5 0 0 0 53.5 84 L 53.5 68.5 A 0.5 0.5 0 0 0 53 68 L 36.5 68 A 0.5 0.5 0 0 0 36 68.5 L 36 84 A 0.5 0.5 0 0 0 36.5 84.5 Z M 36.5 67.5 L 53 67.5 A 0.5 0.5 0 0 0 53.5 67 L 53.5 51.5 A 0.5 0.5 0 0 0 53 51 L 36.5 51 A 0.5 0.5 0 0 0 36 51.5 L 36 67 A 0.5 0.5 0 0 0 36.5 67.5 Z M 36.5 50.5 L 53 50.5 A 0.5 0.5 0 0 0 53.5 50 L 53.5 34.5 A 0.5 0.5 0 0 0 53 34 L 36.5 34 A 0.5 0.5 0 0 0 36 34.5 L 36 50 A 0.5 0.5 0 0 0 36.5 50.5 Z M 36.5 33.5 L 53 33.5 A 0.5 0.5 0 0 0 53.5 33 L 53.5 17.5 A 0.5 0.5 0 0 0 53 17 L 36.5 17 A 0.5 0.5 0 0 0 36 17.5 L 36 33 A 0.5 0.5 0 0 0 36.5 33.5 Z M 36.5 16.5 L 53 16.5 A 0.5 0.5 0 0 0 53.5 16 L 53.5 0.5 A 0.5 0.5 0 0 0 53 0 L 36.5 0 A 0.5 0.5 0 0 0 36 0.5 L 36 16 A 0.5 0.5 0 0 0 36.5 16.5 Z M 54.5 84.5 L 71 84.5 A 0.5 0.5 0 0 0 71.5 84 L 71.5 68.5 A 0.5 0.5 0 0 0 71 68 L 54.5 68 A 0.5 0.5 0 0 0 54 68.5 L 54 84 A 0.5 0.5 0 0 0 54.5 84.5 Z M 54.5 67.5 L 71 67.5 A 0.5 0.5 0 0 0 71.5 67 L 71.5 51.5 A 0.5 0.5 0 0 0 71 51 L 54.5 51 A 0.5 0.5 0 0 0 54 51.5 L 54 67 A 0.5 0.5 0 0 0 54.5 67.5 Z M 54.5 50.5 L 71 50.5 A 0.5 0.5 0 0 0 71.5 50 L 71.5 34.5 A 0.5 0.5 0 0 0 71 34 L 54.5 34 A 0.5 0.5 0 0 0 54 34.5 L 54 50 A 0.5 0.5 0 0 0 54.5 50.5 Z M 54.5 33.5 L 71 33.5 A 0.5 0.5 0 0 0 71.5 33 L 71.5 17.5 A 0.5 0.5 0 0 0 71 17 L 54.5 17 A 0.5 0.5 0 0 0 54 17.5 L 54 33 A 0.5 0.5 0 0 0 54.5 33.5 Z M 54.5 16.5 L 71 16.5 A 0.5 0.5 0 0 0 71.5 16 L 71.5 0.5 A 0.5 0.5 0 0 0 71 0 L 54.5 0 A 0.5 0.5 0 0 0 54 0.5 L 54 16 A 0.5 0.5 0 0 0 54.5 16.5 Z M 72.5 84.5 L 89 84.5 A 0.5 0.5 0 0 0 89.5 84 L 89.5 68.5 A 0.5 0.5 0 0 0 89 68 L 72.5 68 A 0.5 0.5 0 0 0 72 68.5 L 72 84 A 0.5 0.5 0 0 0 72.5 84.5 Z M 72.5 67.5 L 89 67.5 A 0.5 0.5 0 0 0 89.5 67 L 89.5 51.5 A 0.5 0.5 0 0 0 89 51 L 72.5 51 A 0.5 0.5 0 0 0 72 51.5 L 72 67 A 0.5 0.5 0 0 0 72.5 67.5 Z M 72.5 50.5 L 89 50.5 A 0.5 0.5 0 0 0 89.5 50 L 89.5 34.5 A 0.5 0.5 0 0 0 89 34 L 72.5 34 A 0.5 0.5 0 0 0 72 34.5 L 72 50 A 0.5 0.5 0 0 0 72.5 50.5 Z M 72.5 33.5 L 89 33.5 A 0.5 0.5 0 0 0 89.5 33 L 89.5 17.5 A 0.5 0.5 0 0 0 89 17 L 72.5 17 A 0.5 0.5 0 0 0 72 17.5 L 72 33 A 0.5 0.5 0 0 0 72.5 33.5 Z M 72.5 16.5 L 89 16.5 A 0.5 0.5 0 0 0 89.5 16 L 89.5 0.5 A 0.5 0.5 0 0 0 89 0 L 72.5 0 A 0.5 0.5 0 0 0 72 0.5 L 72 16 A 0.5 0.5 0 0 0 72.5 16.5 Z M 90.5 84.5 L 107 84.5 A 0.5 0.5 0 0 0 107.5 84 L 107.5 68.5 A 0.5 0.5 0 0 0 107 68 L 90.5 68 A 0.5 0.5 0 0 0 90 68.5 L 90 84 A 0.5 0.5 0 0 0 90.5 84.5 Z M 90.5 67.5 L 107 67.5 A 0.5 0.5 0 0 0 107.5 67 L 107.5 51.5 A 0.5 0.5 0 0 0 107 51 L 90.5 51 A 0.5 0.5 0 0 0 90 51.5 L 90 67 A 0.5 0.5 0 0 0 90.5 67.5 Z M 90.5 50.5 L 107 50.5 A 0.5 0.5 0 0 0 107.5 50 L 107.5 34.5 A 0.5 0.5 0 0 0 107 34 L 90.5 34 A 0.5 0.5 0 0 0 90 34.5 L 90 50 A 0.5 0.5 0 0 0 90.5 50.5 Z M 90.5 33.5 L 107 33.5 A 0.5 0.5 0 0 0 107.5 33 L 107.5 17.5 A 0.5 0.5 0 0 0 107 17 L 90.5 17 A 0.5 0.5 0 0 0 90 17.5 L 90 33 A 0.5 0.5 0 0 0 90.5 33.5 Z M 90.5 16.5 L 107 16.5 A 0.5 0.5 0 0 0 107.5 16 L 107.5 0.5 A 0.5 0.5 0 0 0 107 0 L 90.5 0 A 0.5 0.5 0 0 0 90 0.5 L 90 16 A 0.5 0.5 0 0 0 90.5 16.5 Z M 108.5 84.5 L 125 84.5 A 0.5 0.5 0 0 0 125.5 84 L 125.5 68.5 A 0.5 0.5 0 0 0 125 68 L 108.5 68 A 0.5 0.5 0 0 0 108 68.5 L 108 84 A 0.5 0.5 0 0 0 108.5 84.5 Z M 108.5 67.5 L 125 67.5 A 0.5 0.5 0 0 0 125.5 67 L 125.5 51.5 A 0.5 0.5 0 0 0 125 51 L 108.5 51 A 0.5 0.5 0 0 0 108 51.5 L 108 67 A 0.5 0.5 0 0 0 108.5 67.5 Z" vector-effect="non-scaling-stroke"/></g></svg>