<svg width="121.8mm" height="81.8mm" viewBox="0 0 121.8 81.8" xmlns="http://www.w3.org/2000/svg"><g id="svgGroup" stroke-linecap="round" fill-rule="evenodd" font-size="9pt" stroke="#000" stroke-width="0.25mm" fill="none" style="stroke:#000;stroke-width:0.25mm;fill:none"><path d="M 36.5 47.8 L 49.3 47.8 A 0.5 0.5 0 0 0 49.8 47.3 L 49.8 34.5 A 0.5 0.5 0 0 0 49.3 34 L 36.5 34 A 0.5 0.5 0 0 0 36 34.5 L 36 47.3 A 0.5 0.5 0 0 0 36.5 47.8 Z M 36.5 30.8 L 49.3 30.8 A 0.5 0.5 0 0 0 49.8 30.3 L 49.8 17.5 A 0.5 0.5 0 0 0 49.3 17 L 36.5 17 A 0.5 0.5 0 0 0 36 17.5 L 36 30.3 A 0.5 0.5 0 0 0 36.5 30.8 Z M 36.5 13.8 L 49.3 13.8 A 0.5 0.5 0 0 0 49.8 13.3 L 49.8 0.5 A 0.5 0.5 0 0 0 49.3 0 L 36.5 0 A 0.5 0.5 0 0 0 36 0.5 L 36 13.3 A 0.5 0.5 0 0 0 36.5 13.8 Z M 54.5 47.8 L 67.3 47.8 A 0.5 0.5 0 0 0 67.8 47.3 L 67.8 34.5 A 0.5 0.5 0 0 0 67.3 34 L 54.5 34 A 0.5 0.5 0 0 0 54 34.5 L 54 47.3 A 0.5 0.5 0 0 0 54.5 47.8 Z M 54.5 30.8 L 67.3 30.8 A 0.5 0.5 0 0 0 67.8 30.3 L 67.8 17.5 A 0.5 0.5 0 0 0 67.3 17 L 54.5 17 A 0.5 0.5 0 0 0 54 17.5 L 54 30.3 A 0.5 0.5 0 0 0 54.5 30.8 Z M 54.5 13.8 L 67.3 13.8 A 0.5 0.5 0 0 0 67.8 13.3 L 67.8 0.5 A 0.5 0.5 0 0 0 67.3 0 L 54.5 0 A 0.5 0.5 0 0 0 54 0.5 L 54 13.3 A 0.5 0.5 0 0 0 54.5 13.8 Z M 0.5 47.8 L 13.3 47.8 A 0.5 0.5 0 0 0 13.8 47.3 L 13.8 34.5 A 0.5 0.5 0 0 0 13.3 34 L 0.5 34 A 0.5 0.5 0 0 0 0 34.5 L 0 47.3 A 0.5 0.5 0 0 0 0.5 47.8 Z M 0.5 30.8 L 13.3 30.8 A 0.5 0.5 0 0 0 13.8 30.3 L 13.8 17.5 A 0.5 0.5 0 0 0 13.3 17 L 0.5 17 A 0.5 0.5 0 0 0 0 17.5 L 0 30.3 A 0.5 0.5 0 0 0 0.5 30.8 Z M 0.5 13.8 L 13.3 13.8 A 0.5 0.5 0 0 0 13.8 13.3 L 13.8 0.5 A 0.5 0.5 0 0 0 13.3 0 L 0.5 0 A 0.5 0.5 0 0 0 0 0.5 L 0 13.3 A 0.5 0.5 0 0 0 0.5 13.8 Z M 36.5 81.8 L 49.3 81.8 A 0.5 0.5 0 0 0 49.8 81.3 L 49.8 68.5 A 0.5 0.5 0 0 0 49.3 68 L 36.5 68 A 0.5 0.5 0 0 0 36 68.5 L 36 81.3 A 0.5 0.5 0 0 0 36.5 81.8 Z M 36.5 64.8 L 49.3 64.8 A 0.5 0.5 0 0 0 49.8 64.3 L 49.8 51.5 A 0.5 0.5 0 0 0 49.3 51 L 36.5 51 A 0.5 0.5 0 0 0 36 51.5 L 36 64.3 A 0.5 0.5 0 0 0 36.5 64.8 Z M 54.5 81.8 L 67.3 81.8 A 0.5 0.5 0 0 0 67.8 81.3 L 67.8 68.5 A 0.5 0.5 0 0 0 67.3 68 L 54.5 68 A 0.5 0.5 0 0 0 54 68.5 L 54 81.3 A 0.5 0.5 0 0 0 54.5 81.8 Z M 54.5 64.8 L 67.3 64.8 A 0.5 0.5 0 0 0 67.8 64.3 L 67.8 51.5 A 0.5 0.5 0 0 0 67.3 51 L 54.5 51 A 0.5 0.5 0 0 0 54 51.5 L 54 64.3 A 0.5 0.5 0 0 0 54.5 64.8 Z M 18.5 47.8 L 31.3 47.8 A 0.5 0.5 0 0 0 31.8 47.3 L 31.8 34.5 A 0.5 0.5 0 0 0 31.3 34 L 18.5 34 A 0.5 0.5 0 0 0 18 34.5 L 18 47.3 A 0.5 0.5 0 0 0 18.5 47.8 Z M 18.5 30.8 L 31.3 30.8 A 0.5 0.5 0 0 0 31.8 30.3 L 31.8 17.5 A 0.5 0.5 0 0 0 31.3 17 L 18.5 17 A 0.5 0.5 0 0 0 18 17.5 L 18 30.3 A 0.5 0.5 0 0 0 18.5 30.8 Z M 18.5 13.8 L 31.3 13.8 A 0.5 0.5 0 0 0 31.8 13.3 L 31.8 0.5 A 0.5 0.5 0 0 0 31.3 0 L 18.5 0 A 0.5 0.5 0 0 0 18 0.5 L 18 13.3 A 0.5 0.5 0 0 0 18.5 13.8 Z M 72.5 47.8 L 85.3 47.8 A 0.5 0.5 0 0 0 85.8 47.3 L 85.8 34.5 A 0.5 0.5 0 0 0 85.3 34 L 72.5 34 A 0.5 0.5 0 0 0 72 34.5 L 72 47.3 A 0.5 0.5 0 0 0 72.5 47.8 Z M 72.5 30.8 L 85.3 30.8 A 0.5 0.5 0 0 0 85.8 30.3 L 85.8 17.5 A 0.5 0.5 0 0 0 85.3 17 L 72.5 17 A 0.5 0.5 0 0 0 72 17.5 L 72 30.3 A 0.5 0.5 0 0 0 72.5 30.8 Z M 72.5 13.8 L 85.3 13.8 A 0.5 0.5 0 0 0 85.8 13.3 L 85.8 0.5 A 0.5 0.5 0 0 0 85.3 0 L 72.5 0 A 0.5 0.5 0 0 0 72 0.5 L 72 13.3 A 0.5 0.5 0 0 0 72.5 13.8 Z M 90.5 47.8 L 103.3 47.8 A 0.5 0.5 0 0 0 103.8 47.3 L 103.8 34.5 A 0.5 0.5 0 0 0 103.3 34 L 90.5 34 A 0.5 0.5 0 0 0 90 34.5 L 90 47.3 A 0.5 0.5 0 0 0 90.5 47.8 Z M 90.5 30.8 L 103.3 30.8 A 0.5 0.5 0 0 0 103.8 30.3 L 103.8 17.5 A 0.5 0.5 0 0 0 103.3 17 L 90.5 17 A 0.5 0.5 0 0 0 90 17.5 L 90 30.3 A 0.5 0.5 0 0 0 90.5 30.8 Z M 90.5 13.8 L 103.3 13.8 A 0.5 0.5 0 0 0 103.8 13.3 L 103.8 0.5 A 0.5 0.5 0 0 0 103.3 0 L 90.5 0 A 0.5 0.5 0 0 0 90 0.5 L 90 13.3 A 0.5 0.5 0 0 0 90.5 13.8 Z M 0.5 81.8 L 13.3 81.8 A 0.5 0.5 0 0 0 13.8 81.3 L 13.8 68.5 A 0.5 0.5 0 0 0 13.3 68 L 0.5 68 A 0.5 0.5 0 0 0 0 68.5 L 0 81.3 A 0.5 0.5 0 0 0 0.5 81.8 Z M 0.5 64.8 L 13.3 64.8 A 0.5 0.5 0 0 0 13.8 64.3 L 13.8 51.5 A 0.5 0.5 0 0 0 13.3 51 L 0.5 51 A 0.5 0.5 0 0 0 0 51.5 L 0 64.3 A 0.5 0.5 0 0 0 0.5 64.8 Z M 18.5 81.8 L 31.3 81.8 A 0.5 0.5 0 0 0 31.8 81.3 L 31.8 68.5 A 0.5 0.5 0 0 0 31.3 68 L 18.5 68 A 0.5 0.5 0 0 0 18 68.5 L 18 81.3 A 0.5 0.5 0 0 0 18.5 81.8 Z M 18.5 64.8 L 31.3 64.8 A 0.5 0.5 0 0 0 31.8 64.3 L 31.8 51.5 A 0.5 0.5 0 0 0 31.3 51 L 18.5 51 A 0.5 0.5 0 0 0 18 51.5 L 18 64.3 A 0.5 0.5 0 0 0 18.5 64.8 Z M 72.5 81.8 L 85.3 81.8 A 0.5 0.5 0 0 0 85.8 81.3 L 85.8 68.5 A 0.5 0.5 0 0 0 85.3 68 L 72.5 68 A 0.5 0.5 0 0 0 72 68.5 L 72 81.3 A 0.5 0.5 0 0 0 72.5 81.8 Z M 72.5 64.8 L 85.3 64.8 A 0.5 0.5 0 0 0 85.8 64.3 L 85.8 51.5 A 0.5 0.5 0 0 0 85.3 51 L 72.5 51 A 0.5 0.5 0 0 0 72 51.5 L 72 64.3 A 0.5 0.5 0 0 0 72.5 64.8 Z M 90.5 81.8 L 103.3 81.8 A 0.5 0.5 0 0 0 103.8 81.3 L 103.8 68.5 A 0.5 0.5 0 0 0 103.3 68 L 90.5 68 A 0.5 0.5 0 0 0 90 68.5 L 90 81.3 A 0.5 0.5 0 0 0 90.5 81.8 Z M 90.5 64.8 L 103.3 64.8 A 0.5 0.5 0 0 0 103.8 64.3 L 103.8 51.5 A 0.5 0.5 0 0 0 103.3 51 L 90.5 51 A 0.5 0.5 0 0 0 90 51.5 L 90 64.3 A 0.5 0.5 0 0 0 90.5 64.8 Z M 108.5 81.8 L 121.3 81.8 A 0.5 0.5 0 0 0 121.8 81.3 L 121.8 68.5 A 0.5 0.5 0 0 0 121.3 68 L 108.5 68 A 0.5 0.5 0 0 0 108 68.5 L 108 81.3 A 0.5 0.5 0 0 0 108.5 81.8 Z M 108.5 64.8 L 121.3 64.8 A 0.5 0.5 0 0 0 121.8 64.3 L 121.8 51.5 A 0.5 0.5 0 0 0 121.3 51 L 108.5 51 A 0.5 0.5 0 0 0 108 51.5 L 108 64.3 A 0.5 0.5 0 0 0 108.5 64.8 Z" vector-effect="non-scaling-stroke"/></g></svg>