0
SECTION
2
HEADER
9
$INSUNITS
70
4
0
ENDSEC
0
SECTION
2
TABLES
0
TABLE
2
LTYPE
0
LTYPE
72
65
70
64
2
CONTINUOUS
3
______
73
0
40
0
0
ENDTAB
0
TABLE
2
LAYER
0
ENDTAB
0
ENDSEC
0
SECTION
2
ENTITIES
0
LINE
8
0
10
-9
20
-8.5
11
119
21
-8.5
0
LINE
8
0
10
119.5
20
-8
11
119.5
21
76
0
LINE
8
0
10
119
20
76.5
11
-9
21
76.5
0
LINE
8
0
10
-9.5
20
76
11
-9.5
21
-8
0
ARC
8
0
10
119
20
-8
40
0.5
50
270
51
0
0
ARC
8
0
10
119
20
76
40
0.5
50
0
51
90
0
ARC
8
0
10
-9
20
76
40
0.5
50
90
51
180
0
ARC
8
0
10
-9
20
-8
40
0.5
50
180
51
270
0
LINE
8
0
10
-8.25
20
-8.25
11
8.25
21
-8.25
0
LINE
8
0
10
8.75
20
-7.75
11
8.75
21
7.75
0
LINE
8
0
10
8.25
20
8.25
11
-8.25
21
8.25
0
LINE
8
0
10
-8.75
20
7.75
11
-8.75
21
-7.75
0
LINE
8
0
10
-8.25
20
8.75
11
8.25
21
8.75
0
LINE
8
0
10
8.75
20
9.25
11
8.75
21
24.75
0
LINE
8
0
10
8.25
20
25.25
11
-8.25
21
25.25
0
LINE
8
0
10
-8.75
20
24.75
11
-8.75
21
9.25
0
LINE
8
0
10
-8.25
20
25.75
11
8.25
21
25.75
0
LINE
8
0
10
8.75
20
26.25
11
8.75
21
41.75
0
LINE
8
0
10
8.25
20
42.25
11
-8.25
21
42.25
0
LINE
8
0
10
-8.75
20
41.75
11
-8.75
21
26.25
0
LINE
8
0
10
-8.25
20
42.75
11
8.25
21
42.75
0
LINE
8
0
10
8.75
20
43.25
11
8.75
21
58.75
0
LINE
8
0
10
8.25
20
59.25
11
-8.25
21
59.25
0
LINE
8
0
10
-8.75
20
58.75
11
-8.75
21
43.25
0
LINE
8
0
10
-8.25
20
59.75
11
8.25
21
59.75
0
LINE
8
0
10
8.75
20
60.25
11
8.75
21
75.75
0
LINE
8
0
10
8.25
20
76.25
11
-8.25
21
76.25
0
LINE
8
0
10
-8.75
20
75.75
11
-8.75
21
60.25
0
LINE
8
0
10
9.75
20
-8.25
11
26.25
21
-8.25
0
LINE
8
0
10
26.75
20
-7.75
11
26.75
21
7.75
0
LINE
8
0
10
26.25
20
8.25
11
9.75
21
8.25
0
LINE
8
0
10
9.25
20
7.75
11
9.25
21
-7.75
0
LINE
8
0
10
9.75
20
8.75
11
26.25
21
8.75
0
LINE
8
0
10
26.75
20
9.25
11
26.75
21
24.75
0
LINE
8
0
10
26.25
20
25.25
11
9.75
21
25.25
0
LINE
8
0
10
9.25
20
24.75
11
9.25
21
9.25
0
LINE
8
0
10
9.75
20
25.75
11
26.25
21
25.75
0
LINE
8
0
10
26.75
20
26.25
11
26.75
21
41.75
0
LINE
8
0
10
26.25
20
42.25
11
9.75
21
42.25
0
LINE
8
0
10
9.25
20
41.75
11
9.25
21
26.25
0
LINE
8
0
10
9.75
20
42.75
11
26.25
21
42.75
0
LINE
8
0
10
26.75
20
43.25
11
26.75
21
58.75
0
LINE
8
0
10
26.25
20
59.25
11
9.75
21
59.25
0
LINE
8
0
10
9.25
20
58.75
11
9.25
21
43.25
0
LINE
8
0
10
9.75
20
59.75
11
26.25
21
59.75
0
LINE
8
0
10
26.75
20
60.25
11
26.75
21
75.75
0
LINE
8
0
10
26.25
20
76.25
11
9.75
21
76.25
0
LINE
8
0
10
9.25
20
75.75
11
9.25
21
60.25
0
LINE
8
0
10
27.75
20
-8.25
11
44.25
21
-8.25
0
LINE
8
0
10
44.75
20
-7.75
11
44.75
21
7.75
0
LINE
8
0
10
44.25
20
8.25
11
27.75
21
8.25
0
LINE
8
0
10
27.25
20
7.75
11
27.25
21
-7.75
0
LINE
8
0
10
27.75
20
8.75
11
44.25
21
8.75
0
LINE
8
0
10
44.75
20
9.25
11
44.75
21
24.75
0
LINE
8
0
10
44.25
20
25.25
11
27.75
21
25.25
0
LINE
8
0
10
27.25
20
24.75
11
27.25
21
9.25
0
LINE
8
0
10
27.75
20
25.75
11
44.25
21
25.75
0
LINE
8
0
10
44.75
20
26.25
11
44.75
21
41.75
0
LINE
8
0
10
44.25
20
42.25
11
27.75
21
42.25
0
LINE
8
0
10
27.25
20
41.75
11
27.25
21
26.25
0
LINE
8
0
10
27.75
20
42.75
11
44.25
21
42.75
0
LINE
8
0
10
44.75
20
43.25
11
44.75
21
58.75
0
LINE
8
0
10
44.25
20
59.25
11
27.75
21
59.25
0
LINE
8
0
10
27.25
20
58.75
11
27.25
21
43.25
0
LINE
8
0
10
27.75
20
59.75
11
44.25
21
59.75
0
LINE
8
0
10
44.75
20
60.25
11
44.75
21
75.75
0
LINE
8
0
10
44.25
20
76.25
11
27.75
21
76.25
0
LINE
8
0
10
27.25
20
75.75
11
27.25
21
60.25
0
LINE
8
0
10
45.75
20
-8.25
11
62.25
21
-8.25
0
LINE
8
0
10
62.75
20
-7.75
11
62.75
21
7.75
0
LINE
8
0
10
62.25
20
8.25
11
45.75
21
8.25
0
LINE
8
0
10
45.25
20
7.75
11
45.25
21
-7.75
0
LINE
8
0
10
45.75
20
8.75
11
62.25
21
8.75
0
LINE
8
0
10
62.75
20
9.25
11
62.75
21
24.75
0
LINE
8
0
10
62.25
20
25.25
11
45.75
21
25.25
0
LINE
8
0
10
45.25
20
24.75
11
45.25
21
9.25
0
LINE
8
0
10
45.75
20
25.75
11
62.25
21
25.75
0
LINE
8
0
10
62.75
20
26.25
11
62.75
21
41.75
0
LINE
8
0
10
62.25
20
42.25
11
45.75
21
42.25
0
LINE
8
0
10
45.25
20
41.75
11
45.25
21
26.25
0
LINE
8
0
10
45.75
20
42.75
11
62.25
21
42.75
0
LINE
8
0
10
62.75
20
43.25
11
62.75
21
58.75
0
LINE
8
0
10
62.25
20
59.25
11
45.75
21
59.25
0
LINE
8
0
10
45.25
20
58.75
11
45.25
21
43.25
0
LINE
8
0
10
45.75
20
59.75
11
62.25
21
59.75
0
LINE
8
0
10
62.75
20
60.25
11
62.75
21
75.75
0
LINE
8
0
10
62.25
20
76.25
11
45.75
21
76.25
0
LINE
8
0
10
45.25
20
75.75
11
45.25
21
60.25
0
LINE
8
0
10
63.75
20
-8.25
11
80.25
21
-8.25
0
LINE
8
0
10
80.75
20
-7.75
11
80.75
21
7.75
0
LINE
8
0
10
80.25
20
8.25
11
63.75
21
8.25
0
LINE
8
0
10
63.25
20
7.75
11
63.25
21
-7.75
0
LINE
8
0
10
63.75
20
8.75
11
80.25
21
8.75
0
LINE
8
0
10
80.75
20
9.25
11
80.75
21
24.75
0
LINE
8
0
10
80.25
20
25.25
11
63.75
21
25.25
0
LINE
8
0
10
63.25
20
24.75
11
63.25
21
9.25
0
LINE
8
0
10
63.75
20
25.75
11
80.25
21
25.75
0
LINE
8
0
10
80.75
20
26.25
11
80.75
21
41.75
0
LINE
8
0
10
80.25
20
42.25
11
63.75
21
42.25
0
LINE
8
0
10
63.25
20
41.75
11
63.25
21
26.25
0
LINE
8
0
10
63.75
20
42.75
11
80.25
21
42.75
0
LINE
8
0
10
80.75
20
43.25
11
80.75
21
58.75
0
LINE
8
0
10
80.25
20
59.25
11
63.75
21
59.25
0
LINE
8
0
10
63.25
20
58.75
11
63.25
21
43.25
0
LINE
8
0
10
63.75
20
59.75
11
80.25
21
59.75
0
LINE
8
0
10
80.75
20
60.25
11
80.75
21
75.75
0
LINE
8
0
10
80.25
20
76.25
11
63.75
21
76.25
0
LINE
8
0
10
63.25
20
75.75
11
63.25
21
60.25
0
LINE
8
0
10
81.75
20
-8.25
11
98.25
21
-8.25
0
LINE
8
0
10
98.75
20
-7.75
11
98.75
21
7.75
0
LINE
8
0
10
98.25
20
8.25
11
81.75
21
8.25
0
LINE
8
0
10
81.25
20
7.75
11
81.25
21
-7.75
0
LINE
8
0
10
81.75
20
8.75
11
98.25
21
8.75
0
LINE
8
0
10
98.75
20
9.25
11
98.75
21
24.75
0
LINE
8
0
10
98.25
20
25.25
11
81.75
21
25.25
0
LINE
8
0
10
81.25
20
24.75
11
81.25
21
9.25
0
LINE
8
0
10
81.75
20
25.75
11
98.25
21
25.75
0
LINE
8
0
10
98.75
20
26.25
11
98.75
21
41.75
0
LINE
8
0
10
98.25
20
42.25
11
81.75
21
42.25
0
LINE
8
0
10
81.25
20
41.75
11
81.25
21
26.25
0
LINE
8
0
10
81.75
20
42.75
11
98.25
21
42.75
0
LINE
8
0
10
98.75
20
43.25
11
98.75
21
58.75
0
LINE
8
0
10
98.25
20
59.25
11
81.75
21
59.25
0
LINE
8
0
10
81.25
20
58.75
11
81.25
21
43.25
0
LINE
8
0
10
81.75
20
59.75
11
98.25
21
59.75
0
LINE
8
0
10
98.75
20
60.25
11
98.75
21
75.75
0
LINE
8
0
10
98.25
20
76.25
11
81.75
21
76.25
0
LINE
8
0
10
81.25
20
75.75
11
81.25
21
60.25
0
LINE
8
0
10
99.75
20
-8.25
11
116.25
21
-8.25
0
LINE
8
0
10
116.75
20
-7.75
11
116.75
21
7.75
0
LINE
8
0
10
116.25
20
8.25
11
99.75
21
8.25
0
LINE
8
0
10
99.25
20
7.75
11
99.25
21
-7.75
0
LINE
8
0
10
99.75
20
8.75
11
116.25
21
8.75
0
LINE
8
0
10
116.75
20
9.25
11
116.75
21
24.75
0
LINE
8
0
10
116.25
20
25.25
11
99.75
21
25.25
0
LINE
8
0
10
99.25
20
24.75
11
99.25
21
9.25
0
ARC
8
0
10
8.25
20
-7.75
40
0.5
50
270
51
0
0
ARC
8
0
10
8.25
20
7.75
40
0.5
50
0
51
90
0
ARC
8
0
10
-8.25
20
7.75
40
0.5
50
90
51
180
0
ARC
8
0
10
-8.25
20
-7.75
40
0.5
50
180
51
270
0
ARC
8
0
10
8.25
20
9.25
40
0.5
50
270
51
0
0
ARC
8
0
10
8.25
20
24.75
40
0.5
50
0
51
90
0
ARC
8
0
10
-8.25
20
24.75
40
0.5
50
90
51
180
0
ARC
8
0
10
-8.25
20
9.25
40
0.5
50
180
51
270
0
ARC
8
0
10
8.25
20
26.25
40
0.5
50
270
51
0
0
ARC
8
0
10
8.25
20
41.75
40
0.5
50
0
51
90
0
ARC
8
0
10
-8.25
20
41.75
40
0.5
50
90
51
180
0
ARC
8
0
10
-8.25
20
26.25
40
0.5
50
180
51
270
0
ARC
8
0
10
8.25
20
43.25
40
0.5
50
270
51
0
0
ARC
8
0
10
8.25
20
58.75
40
0.5
50
0
51
90
0
ARC
8
0
10
-8.25
20
58.75
40
0.5
50
90
51
180
0
ARC
8
0
10
-8.25
20
43.25
40
0.5
50
180
51
270
0
ARC
8
0
10
8.25
20
60.25
40
0.5
50
270
51
0
0
ARC
8
0
10
8.25
20
75.75
40
0.5
50
0
51
90
0
ARC
8
0
10
-8.25
20
75.75
40
0.5
50
90
51
180
0
ARC
8
0
10
-8.25
20
60.25
40
0.5
50
180
51
270
0
ARC
8
0
10
26.25
20
-7.75
40
0.5
50
270
51
0
0
ARC
8
0
10
26.25
20
7.75
40
0.5
50
0
51
90
0
ARC
8
0
10
9.75
20
7.75
40
0.5
50
90
51
180
0
ARC
8
0
10
9.75
20
-7.75
40
0.5
50
180
51
270
0
ARC
8
0
10
26.25
20
9.25
40
0.5
50
270
51
0
0
ARC
8
0
10
26.25
20
24.75
40
0.5
50
0
51
90
0
ARC
8
0
10
9.75
20
24.75
40
0.5
50
90
51
180
0
ARC
8
0
10
9.75
20
9.25
40
0.5
50
180
51
270
0
ARC
8
0
10
26.25
20
26.25
40
0.5
50
270
51
0
0
ARC
8
0
10
26.25
20
41.75
40
0.5
50
0
51
90
0
ARC
8
0
10
9.75
20
41.75
40
0.5
50
90
51
180
0
ARC
8
0
10
9.75
20
26.25
40
0.5
50
180
51
270
0
ARC
8
0
10
26.25
20
43.25
40
0.5
50
270
51
0
0
ARC
8
0
10
26.25
20
58.75
40
0.5
50
0
51
90
0
ARC
8
0
10
9.75
20
58.75
40
0.5
50
90
51
180
0
ARC
8
0
10
9.75
20
43.25
40
0.5
50
180
51
270
0
ARC
8
0
10
26.25
20
60.25
40
0.5
50
270
51
0
0
ARC
8
0
10
26.25
20
75.75
40
0.5
50
0
51
90
0
ARC
8
0
10
9.75
20
75.75
40
0.5
50
90
51
180
0
ARC
8
0
10
9.75
20
60.25
40
0.5
50
180
51
270
0
ARC
8
0
10
44.25
20
-7.75
40
0.5
50
270
51
0
0
ARC
8
0
10
44.25
20
7.75
40
0.5
50
0
51
90
0
ARC
8
0
10
27.75
20
7.75
40
0.5
50
90
51
180
0
ARC
8
0
10
27.75
20
-7.75
40
0.5
50
180
51
270
0
ARC
8
0
10
44.25
20
9.25
40
0.5
50
270
51
0
0
ARC
8
0
10
44.25
20
24.75
40
0.5
50
0
51
90
0
ARC
8
0
10
27.75
20
24.75
40
0.5
50
90
51
180
0
ARC
8
0
10
27.75
20
9.25
40
0.5
50
180
51
270
0
ARC
8
0
10
44.25
20
26.25
40
0.5
50
270
51
0
0
ARC
8
0
10
44.25
20
41.75
40
0.5
50
0
51
90
0
ARC
8
0
10
27.75
20
41.75
40
0.5
50
90
51
180
0
ARC
8
0
10
27.75
20
26.25
40
0.5
50
180
51
270
0
ARC
8
0
10
44.25
20
43.25
40
0.5
50
270
51
0
0
ARC
8
0
10
44.25
20
58.75
40
0.5
50
0
51
90
0
ARC
8
0
10
27.75
20
58.75
40
0.5
50
90
51
180
0
ARC
8
0
10
27.75
20
43.25
40
0.5
50
180
51
270
0
ARC
8
0
10
44.25
20
60.25
40
0.5
50
270
51
0
0
ARC
8
0
10
44.25
20
75.75
40
0.5
50
0
51
90
0
ARC
8
0
10
27.75
20
75.75
40
0.5
50
90
51
180
0
ARC
8
0
10
27.75
20
60.25
40
0.5
50
180
51
270
0
ARC
8
0
10
62.25
20
-7.75
40
0.5
50
270
51
0
0
ARC
8
0
10
62.25
20
7.75
40
0.5
50
0
51
90
0
ARC
8
0
10
45.75
20
7.75
40
0.5
50
90
51
180
0
ARC
8
0
10
45.75
20
-7.75
40
0.5
50
180
51
270
0
ARC
8
0
10
62.25
20
9.25
40
0.5
50
270
51
0
0
ARC
8
0
10
62.25
20
24.75
40
0.5
50
0
51
90
0
ARC
8
0
10
45.75
20
24.75
40
0.5
50
90
51
180
0
ARC
8
0
10
45.75
20
9.25
40
0.5
50
180
51
270
0
ARC
8
0
10
62.25
20
26.25
40
0.5
50
270
51
0
0
ARC
8
0
10
62.25
20
41.75
40
0.5
50
0
51
90
0
ARC
8
0
10
45.75
20
41.75
40
0.5
50
90
51
180
0
ARC
8
0
10
45.75
20
26.25
40
0.5
50
180
51
270
0
ARC
8
0
10
62.25
20
43.25
40
0.5
50
270
51
0
0
ARC
8
0
10
62.25
20
58.75
40
0.5
50
0
51
90
0
ARC
8
0
10
45.75
20
58.75
40
0.5
50
90
51
180
0
ARC
8
0
10
45.75
20
43.25
40
0.5
50
180
51
270
0
ARC
8
0
10
62.25
20
60.25
40
0.5
50
270
51
0
0
ARC
8
0
10
62.25
20
75.75
40
0.5
50
0
51
90
0
ARC
8
0
10
45.75
20
75.75
40
0.5
50
90
51
180
0
ARC
8
0
10
45.75
20
60.25
40
0.5
50
180
51
270
0
ARC
8
0
10
80.25
20
-7.75
40
0.5
50
270
51
0
0
ARC
8
0
10
80.25
20
7.75
40
0.5
50
0
51
90
0
ARC
8
0
10
63.75
20
7.75
40
0.5
50
90
51
180
0
ARC
8
0
10
63.75
20
-7.75
40
0.5
50
180
51
270
0
ARC
8
0
10
80.25
20
9.25
40
0.5
50
270
51
0
0
ARC
8
0
10
80.25
20
24.75
40
0.5
50
0
51
90
0
ARC
8
0
10
63.75
20
24.75
40
0.5
50
90
51
180
0
ARC
8
0
10
63.75
20
9.25
40
0.5
50
180
51
270
0
ARC
8
0
10
80.25
20
26.25
40
0.5
50
270
51
0
0
ARC
8
0
10
80.25
20
41.75
40
0.5
50
0
51
90
0
ARC
8
0
10
63.75
20
41.75
40
0.5
50
90
51
180
0
ARC
8
0
10
63.75
20
26.25
40
0.5
50
180
51
270
0
ARC
8
0
10
80.25
20
43.25
40
0.5
50
270
51
0
0
ARC
8
0
10
80.25
20
58.75
40
0.5
50
0
51
90
0
ARC
8
0
10
63.75
20
58.75
40
0.5
50
90
51
180
0
ARC
8
0
10
63.75
20
43.25
40
0.5
50
180
51
270
0
ARC
8
0
10
80.25
20
60.25
40
0.5
50
270
51
0
0
ARC
8
0
10
80.25
20
75.75
40
0.5
50
0
51
90
0
ARC
8
0
10
63.75
20
75.75
40
0.5
50
90
51
180
0
ARC
8
0
10
63.75
20
60.25
40
0.5
50
180
51
270
0
ARC
8
0
10
98.25
20
-7.75
40
0.5
50
270
51
0
0
ARC
8
0
10
98.25
20
7.75
40
0.5
50
0
51
90
0
ARC
8
0
10
81.75
20
7.75
40
0.5
50
90
51
180
0
ARC
8
0
10
81.75
20
-7.75
40
0.5
50
180
51
270
0
ARC
8
0
10
98.25
20
9.25
40
0.5
50
270
51
0
0
ARC
8
0
10
98.25
20
24.75
40
0.5
50
0
51
90
0
ARC
8
0
10
81.75
20
24.75
40
0.5
50
90
51
180
0
ARC
8
0
10
81.75
20
9.25
40
0.5
50
180
51
270
0
ARC
8
0
10
98.25
20
26.25
40
0.5
50
270
51
0
0
ARC
8
0
10
98.25
20
41.75
40
0.5
50
0
51
90
0
ARC
8
0
10
81.75
20
41.75
40
0.5
50
90
51
180
0
ARC
8
0
10
81.75
20
26.25
40
0.5
50
180
51
270
0
ARC
8
0
10
98.25
20
43.25
40
0.5
50
270
51
0
0
ARC
8
0
10
98.25
20
58.75
40
0.5
50
0
51
90
0
ARC
8
0
10
81.75
20
58.75
40
0.5
50
90
51
180
0
ARC
8
0
10
81.75
20
43.25
40
0.5
50
180
51
270
0
ARC
8
0
10
98.25
20
60.25
40
0.5
50
270
51
0
0
ARC
8
0
10
98.25
20
75.75
40
0.5
50
0
51
90
0
ARC
8
0
10
81.75
20
75.75
40
0.5
50
90
51
180
0
ARC
8
0
10
81.75
20
60.25
40
0.5
50
180
51
270
0
ARC
8
0
10
116.25
20
-7.75
40
0.5
50
270
51
0
0
ARC
8
0
10
116.25
20
7.75
40
0.5
50
0
51
90
0
ARC
8
0
10
99.75
20
7.75
40
0.5
50
90
51
180
0
ARC
8
0
10
99.75
20
-7.75
40
0.5
50
180
51
270
0
ARC
8
0
10
116.25
20
9.25
40
0.5
50
270
51
0
0
ARC
8
0
10
116.25
20
24.75
40
0.5
50
0
51
90
0
ARC
8
0
10
99.75
20
24.75
40
0.5
50
90
51
180
0
ARC
8
0
10
99.75
20
9.25
40
0.5
50
180
51
270
0
LINE
8
0
10
-6.4
20
-6.9
11
6.4
21
-6.9
0
LINE
8
0
10
6.9
20
-6.4
11
6.9
21
6.4
0
LINE
8
0
10
6.4
20
6.9
11
-6.4
21
6.9
0
LINE
8
0
10
-6.9
20
6.4
11
-6.9
21
-6.4
0
LINE
8
0
10
-6.4
20
10.1
11
6.4
21
10.1
0
LINE
8
0
10
6.9
20
10.6
11
6.9
21
23.4
0
LINE
8
0
10
6.4
20
23.9
11
-6.4
21
23.9
0
LINE
8
0
10
-6.9
20
23.4
11
-6.9
21
10.6
0
LINE
8
0
10
-6.4
20
27.1
11
6.4
21
27.1
0
LINE
8
0
10
6.9
20
27.6
11
6.9
21
40.4
0
LINE
8
0
10
6.4
20
40.9
11
-6.4
21
40.9
0
LINE
8
0
10
-6.9
20
40.4
11
-6.9
21
27.6
0
LINE
8
0
10
-6.4
20
44.1
11
6.4
21
44.1
0
LINE
8
0
10
6.9
20
44.6
11
6.9
21
57.4
0
LINE
8
0
10
6.4
20
57.9
11
-6.4
21
57.9
0
LINE
8
0
10
-6.9
20
57.4
11
-6.9
21
44.6
0
LINE
8
0
10
-6.4
20
61.1
11
6.4
21
61.1
0
LINE
8
0
10
6.9
20
61.6
11
6.9
21
74.4
0
LINE
8
0
10
6.4
20
74.9
11
-6.4
21
74.9
0
LINE
8
0
10
-6.9
20
74.4
11
-6.9
21
61.6
0
LINE
8
0
10
11.6
20
-6.9
11
24.4
21
-6.9
0
LINE
8
0
10
24.9
20
-6.4
11
24.9
21
6.4
0
LINE
8
0
10
24.4
20
6.9
11
11.6
21
6.9
0
LINE
8
0
10
11.1
20
6.4
11
11.1
21
-6.4
0
LINE
8
0
10
11.6
20
10.1
11
24.4
21
10.1
0
LINE
8
0
10
24.9
20
10.6
11
24.9
21
23.4
0
LINE
8
0
10
24.4
20
23.9
11
11.6
21
23.9
0
LINE
8
0
10
11.1
20
23.4
11
11.1
21
10.6
0
LINE
8
0
10
11.6
20
27.1
11
24.4
21
27.1
0
LINE
8
0
10
24.9
20
27.6
11
24.9
21
40.4
0
LINE
8
0
10
24.4
20
40.9
11
11.6
21
40.9
0
LINE
8
0
10
11.1
20
40.4
11
11.1
21
27.6
0
LINE
8
0
10
11.6
20
44.1
11
24.4
21
44.1
0
LINE
8
0
10
24.9
20
44.6
11
24.9
21
57.4
0
LINE
8
0
10
24.4
20
57.9
11
11.6
21
57.9
0
LINE
8
0
10
11.1
20
57.4
11
11.1
21
44.6
0
LINE
8
0
10
11.6
20
61.1
11
24.4
21
61.1
0
LINE
8
0
10
24.9
20
61.6
11
24.9
21
74.4
0
LINE
8
0
10
24.4
20
74.9
11
11.6
21
74.9
0
LINE
8
0
10
11.1
20
74.4
11
11.1
21
61.6
0
LINE
8
0
10
29.6
20
-6.9
11
42.4
21
-6.9
0
LINE
8
0
10
42.9
20
-6.4
11
42.9
21
6.4
0
LINE
8
0
10
42.4
20
6.9
11
29.6
21
6.9
0
LINE
8
0
10
29.1
20
6.4
11
29.1
21
-6.4
0
LINE
8
0
10
29.6
20
10.1
11
42.4
21
10.1
0
LINE
8
0
10
42.9
20
10.6
11
42.9
21
23.4
0
LINE
8
0
10
42.4
20
23.9
11
29.6
21
23.9
0
LINE
8
0
10
29.1
20
23.4
11
29.1
21
10.6
0
LINE
8
0
10
29.6
20
27.1
11
42.4
21
27.1
0
LINE
8
0
10
42.9
20
27.6
11
42.9
21
40.4
0
LINE
8
0
10
42.4
20
40.9
11
29.6
21
40.9
0
LINE
8
0
10
29.1
20
40.4
11
29.1
21
27.6
0
LINE
8
0
10
29.6
20
44.1
11
42.4
21
44.1
0
LINE
8
0
10
42.9
20
44.6
11
42.9
21
57.4
0
LINE
8
0
10
42.4
20
57.9
11
29.6
21
57.9
0
LINE
8
0
10
29.1
20
57.4
11
29.1
21
44.6
0
LINE
8
0
10
29.6
20
61.1
11
42.4
21
61.1
0
LINE
8
0
10
42.9
20
61.6
11
42.9
21
74.4
0
LINE
8
0
10
42.4
20
74.9
11
29.6
21
74.9
0
LINE
8
0
10
29.1
20
74.4
11
29.1
21
61.6
0
LINE
8
0
10
47.6
20
-6.9
11
60.4
21
-6.9
0
LINE
8
0
10
60.9
20
-6.4
11
60.9
21
6.4
0
LINE
8
0
10
60.4
20
6.9
11
47.6
21
6.9
0
LINE
8
0
10
47.1
20
6.4
11
47.1
21
-6.4
0
LINE
8
0
10
47.6
20
10.1
11
60.4
21
10.1
0
LINE
8
0
10
60.9
20
10.6
11
60.9
21
23.4
0
LINE
8
0
10
60.4
20
23.9
11
47.6
21
23.9
0
LINE
8
0
10
47.1
20
23.4
11
47.1
21
10.6
0
LINE
8
0
10
47.6
20
27.1
11
60.4
21
27.1
0
LINE
8
0
10
60.9
20
27.6
11
60.9
21
40.4
0
LINE
8
0
10
60.4
20
40.9
11
47.6
21
40.9
0
LINE
8
0
10
47.1
20
40.4
11
47.1
21
27.6
0
LINE
8
0
10
47.6
20
44.1
11
60.4
21
44.1
0
LINE
8
0
10
60.9
20
44.6
11
60.9
21
57.4
0
LINE
8
0
10
60.4
20
57.9
11
47.6
21
57.9
0
LINE
8
0
10
47.1
20
57.4
11
47.1
21
44.6
0
LINE
8
0
10
47.6
20
61.1
11
60.4
21
61.1
0
LINE
8
0
10
60.9
20
61.6
11
60.9
21
74.4
0
LINE
8
0
10
60.4
20
74.9
11
47.6
21
74.9
0
LINE
8
0
10
47.1
20
74.4
11
47.1
21
61.6
0
LINE
8
0
10
65.6
20
-6.9
11
78.4
21
-6.9
0
LINE
8
0
10
78.9
20
-6.4
11
78.9
21
6.4
0
LINE
8
0
10
78.4
20
6.9
11
65.6
21
6.9
0
LINE
8
0
10
65.1
20
6.4
11
65.1
21
-6.4
0
LINE
8
0
10
65.6
20
10.1
11
78.4
21
10.1
0
LINE
8
0
10
78.9
20
10.6
11
78.9
21
23.4
0
LINE
8
0
10
78.4
20
23.9
11
65.6
21
23.9
0
LINE
8
0
10
65.1
20
23.4
11
65.1
21
10.6
0
LINE
8
0
10
65.6
20
27.1
11
78.4
21
27.1
0
LINE
8
0
10
78.9
20
27.6
11
78.9
21
40.4
0
LINE
8
0
10
78.4
20
40.9
11
65.6
21
40.9
0
LINE
8
0
10
65.1
20
40.4
11
65.1
21
27.6
0
LINE
8
0
10
65.6
20
44.1
11
78.4
21
44.1
0
LINE
8
0
10
78.9
20
44.6
11
78.9
21
57.4
0
LINE
8
0
10
78.4
20
57.9
11
65.6
21
57.9
0
LINE
8
0
10
65.1
20
57.4
11
65.1
21
44.6
0
LINE
8
0
10
65.6
20
61.1
11
78.4
21
61.1
0
LINE
8
0
10
78.9
20
61.6
11
78.9
21
74.4
0
LINE
8
0
10
78.4
20
74.9
11
65.6
21
74.9
0
LINE
8
0
10
65.1
20
74.4
11
65.1
21
61.6
0
LINE
8
0
10
83.6
20
-6.9
11
96.4
21
-6.9
0
LINE
8
0
10
96.9
20
-6.4
11
96.9
21
6.4
0
LINE
8
0
10
96.4
20
6.9
11
83.6
21
6.9
0
LINE
8
0
10
83.1
20
6.4
11
83.1
21
-6.4
0
LINE
8
0
10
83.6
20
10.1
11
96.4
21
10.1
0
LINE
8
0
10
96.9
20
10.6
11
96.9
21
23.4
0
LINE
8
0
10
96.4
20
23.9
11
83.6
21
23.9
0
LINE
8
0
10
83.1
20
23.4
11
83.1
21
10.6
0
LINE
8
0
10
83.6
20
27.1
11
96.4
21
27.1
0
LINE
8
0
10
96.9
20
27.6
11
96.9
21
40.4
0
LINE
8
0
10
96.4
20
40.9
11
83.6
21
40.9
0
LINE
8
0
10
83.1
20
40.4
11
83.1
21
27.6
0
LINE
8
0
10
83.6
20
44.1
11
96.4
21
44.1
0
LINE
8
0
10
96.9
20
44.6
11
96.9
21
57.4
0
LINE
8
0
10
96.4
20
57.9
11
83.6
21
57.9
0
LINE
8
0
10
83.1
20
57.4
11
83.1
21
44.6
0
LINE
8
0
10
83.6
20
61.1
11
96.4
21
61.1
0
LINE
8
0
10
96.9
20
61.6
11
96.9
21
74.4
0
LINE
8
0
10
96.4
20
74.9
11
83.6
21
74.9
0
LINE
8
0
10
83.1
20
74.4
11
83.1
21
61.6
0
LINE
8
0
10
101.6
20
-6.9
11
114.4
21
-6.9
0
LINE
8
0
10
114.9
20
-6.4
11
114.9
21
6.4
0
LINE
8
0
10
114.4
20
6.9
11
101.6
21
6.9
0
LINE
8
0
10
101.1
20
6.4
11
101.1
21
-6.4
0
LINE
8
0
10
101.6
20
10.1
11
114.4
21
10.1
0
LINE
8
0
10
114.9
20
10.6
11
114.9
21
23.4
0
LINE
8
0
10
114.4
20
23.9
11
101.6
21
23.9
0
LINE
8
0
10
101.1
20
23.4
11
101.1
21
10.6
0
ARC
8
0
10
42.4
20
27.6
40
0.5
50
270
51
0
0
ARC
8
0
10
42.4
20
40.4
40
0.5
50
0
51
90
0
ARC
8
0
10
29.6
20
40.4
40
0.5
50
90
51
180
0
ARC
8
0
10
29.6
20
27.6
40
0.5
50
180
51
270
0
ARC
8
0
10
42.4
20
44.6
40
0.5
50
270
51
0
0
ARC
8
0
10
42.4
20
57.4
40
0.5
50
0
51
90
0
ARC
8
0
10
29.6
20
57.4
40
0.5
50
90
51
180
0
ARC
8
0
10
29.6
20
44.6
40
0.5
50
180
51
270
0
ARC
8
0
10
42.4
20
61.6
40
0.5
50
270
51
0
0
ARC
8
0
10
42.4
20
74.4
40
0.5
50
0
51
90
0
ARC
8
0
10
29.6
20
74.4
40
0.5
50
90
51
180
0
ARC
8
0
10
29.6
20
61.6
40
0.5
50
180
51
270
0
ARC
8
0
10
60.4
20
27.6
40
0.5
50
270
51
0
0
ARC
8
0
10
60.4
20
40.4
40
0.5
50
0
51
90
0
ARC
8
0
10
47.6
20
40.4
40
0.5
50
90
51
180
0
ARC
8
0
10
47.6
20
27.6
40
0.5
50
180
51
270
0
ARC
8
0
10
60.4
20
44.6
40
0.5
50
270
51
0
0
ARC
8
0
10
60.4
20
57.4
40
0.5
50
0
51
90
0
ARC
8
0
10
47.6
20
57.4
40
0.5
50
90
51
180
0
ARC
8
0
10
47.6
20
44.6
40
0.5
50
180
51
270
0
ARC
8
0
10
60.4
20
61.6
40
0.5
50
270
51
0
0
ARC
8
0
10
60.4
20
74.4
40
0.5
50
0
51
90
0
ARC
8
0
10
47.6
20
74.4
40
0.5
50
90
51
180
0
ARC
8
0
10
47.6
20
61.6
40
0.5
50
180
51
270
0
ARC
8
0
10
6.4
20
27.6
40
0.5
50
270
51
0
0
ARC
8
0
10
6.4
20
40.4
40
0.5
50
0
51
90
0
ARC
8
0
10
-6.4
20
40.4
40
0.5
50
90
51
180
0
ARC
8
0
10
-6.4
20
27.6
40
0.5
50
180
51
270
0
ARC
8
0
10
6.4
20
44.6
40
0.5
50
270
51
0
0
ARC
8
0
10
6.4
20
57.4
40
0.5
50
0
51
90
0
ARC
8
0
10
-6.4
20
57.4
40
0.5
50
90
51
180
0
ARC
8
0
10
-6.4
20
44.6
40
0.5
50
180
51
270
0
ARC
8
0
10
6.4
20
61.6
40
0.5
50
270
51
0
0
ARC
8
0
10
6.4
20
74.4
40
0.5
50
0
51
90
0
ARC
8
0
10
-6.4
20
74.4
40
0.5
50
90
51
180
0
ARC
8
0
10
-6.4
20
61.6
40
0.5
50
180
51
270
0
ARC
8
0
10
6.4
20
-6.4
40
0.5
50
270
51
0
0
ARC
8
0
10
6.4
20
6.4
40
0.5
50
0
51
90
0
ARC
8
0
10
-6.4
20
6.4
40
0.5
50
90
51
180
0
ARC
8
0
10
-6.4
20
-6.4
40
0.5
50
180
51
270
0
ARC
8
0
10
6.4
20
10.6
40
0.5
50
270
51
0
0
ARC
8
0
10
6.4
20
23.4
40
0.5
50
0
51
90
0
ARC
8
0
10
-6.4
20
23.4
40
0.5
50
90
51
180
0
ARC
8
0
10
-6.4
20
10.6
40
0.5
50
180
51
270
0
ARC
8
0
10
24.4
20
-6.4
40
0.5
50
270
51
0
0
ARC
8
0
10
24.4
20
6.4
40
0.5
50
0
51
90
0
ARC
8
0
10
11.6
20
6.4
40
0.5
50
90
51
180
0
ARC
8
0
10
11.6
20
-6.4
40
0.5
50
180
51
270
0
ARC
8
0
10
24.4
20
27.6
40
0.5
50
270
51
0
0
ARC
8
0
10
24.4
20
40.4
40
0.5
50
0
51
90
0
ARC
8
0
10
11.6
20
40.4
40
0.5
50
90
51
180
0
ARC
8
0
10
11.6
20
27.6
40
0.5
50
180
51
270
0
ARC
8
0
10
24.4
20
44.6
40
0.5
50
270
51
0
0
ARC
8
0
10
24.4
20
57.4
40
0.5
50
0
51
90
0
ARC
8
0
10
11.6
20
57.4
40
0.5
50
90
51
180
0
ARC
8
0
10
11.6
20
44.6
40
0.5
50
180
51
270
0
ARC
8
0
10
24.4
20
61.6
40
0.5
50
270
51
0
0
ARC
8
0
10
24.4
20
74.4
40
0.5
50
0
51
90
0
ARC
8
0
10
11.6
20
74.4
40
0.5
50
90
51
180
0
ARC
8
0
10
11.6
20
61.6
40
0.5
50
180
51
270
0
ARC
8
0
10
42.4
20
-6.4
40
0.5
50
270
51
0
0
ARC
8
0
10
42.4
20
6.4
40
0.5
50
0
51
90
0
ARC
8
0
10
29.6
20
6.4
40
0.5
50
90
51
180
0
ARC
8
0
10
29.6
20
-6.4
40
0.5
50
180
51
270
0
ARC
8
0
10
42.4
20
10.6
40
0.5
50
270
51
0
0
ARC
8
0
10
42.4
20
23.4
40
0.5
50
0
51
90
0
ARC
8
0
10
29.6
20
23.4
40
0.5
50
90
51
180
0
ARC
8
0
10
29.6
20
10.6
40
0.5
50
180
51
270
0
ARC
8
0
10
60.4
20
-6.4
40
0.5
50
270
51
0
0
ARC
8
0
10
60.4
20
6.4
40
0.5
50
0
51
90
0
ARC
8
0
10
47.6
20
6.4
40
0.5
50
90
51
180
0
ARC
8
0
10
47.6
20
-6.4
40
0.5
50
180
51
270
0
ARC
8
0
10
60.4
20
10.6
40
0.5
50
270
51
0
0
ARC
8
0
10
60.4
20
23.4
40
0.5
50
0
51
90
0
ARC
8
0
10
47.6
20
23.4
40
0.5
50
90
51
180
0
ARC
8
0
10
47.6
20
10.6
40
0.5
50
180
51
270
0
ARC
8
0
10
78.4
20
27.6
40
0.5
50
270
51
0
0
ARC
8
0
10
78.4
20
40.4
40
0.5
50
0
51
90
0
ARC
8
0
10
65.6
20
40.4
40
0.5
50
90
51
180
0
ARC
8
0
10
65.6
20
27.6
40
0.5
50
180
51
270
0
ARC
8
0
10
78.4
20
44.6
40
0.5
50
270
51
0
0
ARC
8
0
10
78.4
20
57.4
40
0.5
50
0
51
90
0
ARC
8
0
10
65.6
20
57.4
40
0.5
50
90
51
180
0
ARC
8
0
10
65.6
20
44.6
40
0.5
50
180
51
270
0
ARC
8
0
10
78.4
20
61.6
40
0.5
50
270
51
0
0
ARC
8
0
10
78.4
20
74.4
40
0.5
50
0
51
90
0
ARC
8
0
10
65.6
20
74.4
40
0.5
50
90
51
180
0
ARC
8
0
10
65.6
20
61.6
40
0.5
50
180
51
270
0
ARC
8
0
10
96.4
20
27.6
40
0.5
50
270
51
0
0
ARC
8
0
10
96.4
20
40.4
40
0.5
50
0
51
90
0
ARC
8
0
10
83.6
20
40.4
40
0.5
50
90
51
180
0
ARC
8
0
10
83.6
20
27.6
40
0.5
50
180
51
270
0
ARC
8
0
10
96.4
20
44.6
40
0.5
50
270
51
0
0
ARC
8
0
10
96.4
20
57.4
40
0.5
50
0
51
90
0
ARC
8
0
10
83.6
20
57.4
40
0.5
50
90
51
180
0
ARC
8
0
10
83.6
20
44.6
40
0.5
50
180
51
270
0
ARC
8
0
10
96.4
20
61.6
40
0.5
50
270
51
0
0
ARC
8
0
10
96.4
20
74.4
40
0.5
50
0
51
90
0
ARC
8
0
10
83.6
20
74.4
40
0.5
50
90
51
180
0
ARC
8
0
10
83.6
20
61.6
40
0.5
50
180
51
270
0
ARC
8
0
10
24.4
20
10.6
40
0.5
50
270
51
0
0
ARC
8
0
10
24.4
20
23.4
40
0.5
50
0
51
90
0
ARC
8
0
10
11.6
20
23.4
40
0.5
50
90
51
180
0
ARC
8
0
10
11.6
20
10.6
40
0.5
50
180
51
270
0
ARC
8
0
10
78.4
20
-6.4
40
0.5
50
270
51
0
0
ARC
8
0
10
78.4
20
6.4
40
0.5
50
0
51
90
0
ARC
8
0
10
65.6
20
6.4
40
0.5
50
90
51
180
0
ARC
8
0
10
65.6
20
-6.4
40
0.5
50
180
51
270
0
ARC
8
0
10
78.4
20
10.6
40
0.5
50
270
51
0
0
ARC
8
0
10
78.4
20
23.4
40
0.5
50
0
51
90
0
ARC
8
0
10
65.6
20
23.4
40
0.5
50
90
51
180
0
ARC
8
0
10
65.6
20
10.6
40
0.5
50
180
51
270
0
ARC
8
0
10
96.4
20
-6.4
40
0.5
50
270
51
0
0
ARC
8
0
10
96.4
20
6.4
40
0.5
50
0
51
90
0
ARC
8
0
10
83.6
20
6.4
40
0.5
50
90
51
180
0
ARC
8
0
10
83.6
20
-6.4
40
0.5
50
180
51
270
0
ARC
8
0
10
96.4
20
10.6
40
0.5
50
270
51
0
0
ARC
8
0
10
96.4
20
23.4
40
0.5
50
0
51
90
0
ARC
8
0
10
83.6
20
23.4
40
0.5
50
90
51
180
0
ARC
8
0
10
83.6
20
10.6
40
0.5
50
180
51
270
0
ARC
8
0
10
114.4
20
-6.4
40
0.5
50
270
51
0
0
ARC
8
0
10
114.4
20
6.4
40
0.5
50
0
51
90
0
ARC
8
0
10
101.6
20
6.4
40
0.5
50
90
51
180
0
ARC
8
0
10
101.6
20
-6.4
40
0.5
50
180
51
270
0
ARC
8
0
10
114.4
20
10.6
40
0.5
50
270
51
0
0
ARC
8
0
10
114.4
20
23.4
40
0.5
50
0
51
90
0
ARC
8
0
10
101.6
20
23.4
40
0.5
50
90
51
180
0
ARC
8
0
10
101.6
20
10.6
40
0.5
50
180
51
270
0
ENDSEC
0
EOF