<svg width="129mm" height="85mm" viewBox="0 0 129 85" xmlns="http://www.w3.org/2000/svg"><g id="svgGroup" stroke-linecap="round" fill-rule="evenodd" font-size="9pt" stroke="#000" stroke-width="0.25mm" fill="none" style="stroke:#000;stroke-width:0.25mm;fill:none"><path d="M 0.5 85 L 128.5 85 A 0.5 0.5 0 0 0 129 84.5 L 129 0.5 A 0.5 0.5 0 0 0 128.5 0 L 0.5 0 A 0.5 0.5 0 0 0 0 0.5 L 0 84.5 A 0.5 0.5 0 0 0 0.5 85 Z M 1.25 84.75 L 17.75 84.75 A 0.5 0.5 0 0 0 18.25 84.25 L 18.25 68.75 A 0.5 0.5 0 0 0 17.75 68.25 L 1.25 68.25 A 0.5 0.5 0 0 0 0.75 68.75 L 0.75 84.25 A 0.5 0.5 0 0 0 1.25 84.75 Z M 1.25 67.75 L 17.75 67.75 A 0.5 0.5 0 0 0 18.25 67.25 L 18.25 51.75 A 0.5 0.5 0 0 0 17.75 51.25 L 1.25 51.25 A 0.5 0.5 0 0 0 0.75 51.75 L 0.75 67.25 A 0.5 0.5 0 0 0 1.25 67.75 Z M 1.25 50.75 L 17.75 50.75 A 0.5 0.5 0 0 0 18.25 50.25 L 18.25 34.75 A 0.5 0.5 0 0 0 17.75 34.25 L 1.25 34.25 A 0.5 0.5 0 0 0 0.75 34.75 L 0.75 50.25 A 0.5 0.5 0 0 0 1.25 50.75 Z M 1.25 33.75 L 17.75 33.75 A 0.5 0.5 0 0 0 18.25 33.25 L 18.25 17.75 A 0.5 0.5 0 0 0 17.75 17.25 L 1.25 17.25 A 0.5 0.5 0 0 0 0.75 17.75 L 0.75 33.25 A 0.5 0.5 0 0 0 1.25 33.75 Z M 1.25 16.75 L 17.75 16.75 A 0.5 0.5 0 0 0 18.25 16.25 L 18.25 0.75 A 0.5 0.5 0 0 0 17.75 0.25 L 1.25 0.25 A 0.5 0.5 0 0 0 0.75 0.75 L 0.75 16.25 A 0.5 0.5 0 0 0 1.25 16.75 Z M 19.25 84.75 L 35.75 84.75 A 0.5 0.5 0 0 0 36.25 84.25 L 36.25 68.75 A 0.5 0.5 0 0 0 35.75 68.25 L 19.25 68.25 A 0.5 0.5 0 0 0 18.75 68.75 L 18.75 84.25 A 0.5 0.5 0 0 0 19.25 84.75 Z M 19.25 67.75 L 35.75 67.75 A 0.5 0.5 0 0 0 36.25 67.25 L 36.25 51.75 A 0.5 0.5 0 0 0 35.75 51.25 L 19.25 51.25 A 0.5 0.5 0 0 0 18.75 51.75 L 18.75 67.25 A 0.5 0.5 0 0 0 19.25 67.75 Z M 19.25 50.75 L 35.75 50.75 A 0.5 0.5 0 0 0 36.25 50.25 L 36.25 34.75 A 0.5 0.5 0 0 0 35.75 34.25 L 19.25 34.25 A 0.5 0.5 0 0 0 18.75 34.75 L 18.75 50.25 A 0.5 0.5 0 0 0 19.25 50.75 Z M 19.25 33.75 L 35.75 33.75 A 0.5 0.5 0 0 0 36.25 33.25 L 36.25 17.75 A 0.5 0.5 0 0 0 35.75 17.25 L 19.25 17.25 A 0.5 0.5 0 0 0 18.75 17.75 L 18.75 33.25 A 0.5 0.5 0 0 0 19.25 33.75 Z M 19.25 16.75 L 35.75 16.75 A 0.5 0.5 0 0 0 36.25 16.25 L 36.25 0.75 A 0.5 0.5 0 0 0 35.75 0.25 L 19.25 0.25 A 0.5 0.5 0 0 0 18.75 0.75 L 18.75 16.25 A 0.5 0.5 0 0 0 19.25 16.75 Z M 37.25 84.75 L 53.75 84.75 A 0.5 0.5 0 0 0 54.25 84.25 L 54.25 68.75 A 0.5 0.5 0 0 0 53.75 68.25 L 37.25 68.25 A 0.5 0.5 0 0 0 36.75 68.75 L 36.75 84.25 A 0.5 0.5 0 0 0 37.25 84.75 Z M 37.25 67.75 L 53.75 67.75 A 0.5 0.5 0 0 0 54.25 67.25 L 54.25 51.75 A 0.5 0.5 0 0 0 53.75 51.25 L 37.25 51.25 A 0.5 0.5 0 0 0 36.75 51.75 L 36.75 67.25 A 0.5 0.5 0 0 0 37.25 67.75 Z M 37.25 50.75 L 53.75 50.75 A 0.5 0.5 0 0 0 54.25 50.25 L 54.25 34.75 A 0.5 0.5 0 0 0 53.75 34.25 L 37.25 34.25 A 0.5 0.5 0 0 0 36.75 34.75 L 36.75 50.25 A 0.5 0.5 0 0 0 37.25 50.75 Z M 37.25 33.75 L 53.75 33.75 A 0.5 0.5 0 0 0 54.25 33.25 L 54.25 17.75 A 0.5 0.5 0 0 0 53.75 17.25 L 37.25 17.25 A 0.5 0.5 0 0 0 36.75 17.75 L 36.75 33.25 A 0.5 0.5 0 0 0 37.25 33.75 Z M 37.25 16.75 L 53.75 16.75 A 0.5 0.5 0 0 0 54.25 16.25 L 54.25 0.75 A 0.5 0.5 0 0 0 53.75 0.25 L 37.25 0.25 A 0.5 0.5 0 0 0 36.75 0.75 L 36.75 16.25 A 0.5 0.5 0 0 0 37.25 16.75 Z M 55.25 84.75 L 71.75 84.75 A 0.5 0.5 0 0 0 72.25 84.25 L 72.25 68.75 A 0.5 0.5 0 0 0 71.75 68.25 L 55.25 68.25 A 0.5 0.5 0 0 0 54.75 68.75 L 54.75 84.25 A 0.5 0.5 0 0 0 55.25 84.75 Z M 55.25 67.75 L 71.75 67.75 A 0.5 0.5 0 0 0 72.25 67.25 L 72.25 51.75 A 0.5 0.5 0 0 0 71.75 51.25 L 55.25 51.25 A 0.5 0.5 0 0 0 54.75 51.75 L 54.75 67.25 A 0.5 0.5 0 0 0 55.25 67.75 Z M 55.25 50.75 L 71.75 50.75 A 0.5 0.5 0 0 0 72.25 50.25 L 72.25 34.75 A 0.5 0.5 0 0 0 71.75 34.25 L 55.25 34.25 A 0.5 0.5 0 0 0 54.75 34.75 L 54.75 50.25 A 0.5 0.5 0 0 0 55.25 50.75 Z M 55.25 33.75 L 71.75 33.75 A 0.5 0.5 0 0 0 72.25 33.25 L 72.25 17.75 A 0.5 0.5 0 0 0 71.75 17.25 L 55.25 17.25 A 0.5 0.5 0 0 0 54.75 17.75 L 54.75 33.25 A 0.5 0.5 0 0 0 55.25 33.75 Z M 55.25 16.75 L 71.75 16.75 A 0.5 0.5 0 0 0 72.25 16.25 L 72.25 0.75 A 0.5 0.5 0 0 0 71.75 0.25 L 55.25 0.25 A 0.5 0.5 0 0 0 54.75 0.75 L 54.75 16.25 A 0.5 0.5 0 0 0 55.25 16.75 Z M 73.25 84.75 L 89.75 84.75 A 0.5 0.5 0 0 0 90.25 84.25 L 90.25 68.75 A 0.5 0.5 0 0 0 89.75 68.25 L 73.25 68.25 A 0.5 0.5 0 0 0 72.75 68.75 L 72.75 84.25 A 0.5 0.5 0 0 0 73.25 84.75 Z M 73.25 67.75 L 89.75 67.75 A 0.5 0.5 0 0 0 90.25 67.25 L 90.25 51.75 A 0.5 0.5 0 0 0 89.75 51.25 L 73.25 51.25 A 0.5 0.5 0 0 0 72.75 51.75 L 72.75 67.25 A 0.5 0.5 0 0 0 73.25 67.75 Z M 73.25 50.75 L 89.75 50.75 A 0.5 0.5 0 0 0 90.25 50.25 L 90.25 34.75 A 0.5 0.5 0 0 0 89.75 34.25 L 73.25 34.25 A 0.5 0.5 0 0 0 72.75 34.75 L 72.75 50.25 A 0.5 0.5 0 0 0 73.25 50.75 Z M 73.25 33.75 L 89.75 33.75 A 0.5 0.5 0 0 0 90.25 33.25 L 90.25 17.75 A 0.5 0.5 0 0 0 89.75 17.25 L 73.25 17.25 A 0.5 0.5 0 0 0 72.75 17.75 L 72.75 33.25 A 0.5 0.5 0 0 0 73.25 33.75 Z M 73.25 16.75 L 89.75 16.75 A 0.5 0.5 0 0 0 90.25 16.25 L 90.25 0.75 A 0.5 0.5 0 0 0 89.75 0.25 L 73.25 0.25 A 0.5 0.5 0 0 0 72.75 0.75 L 72.75 16.25 A 0.5 0.5 0 0 0 73.25 16.75 Z M 91.25 84.75 L 107.75 84.75 A 0.5 0.5 0 0 0 108.25 84.25 L 108.25 68.75 A 0.5 0.5 0 0 0 107.75 68.25 L 91.25 68.25 A 0.5 0.5 0 0 0 90.75 68.75 L 90.75 84.25 A 0.5 0.5 0 0 0 91.25 84.75 Z M 91.25 67.75 L 107.75 67.75 A 0.5 0.5 0 0 0 108.25 67.25 L 108.25 51.75 A 0.5 0.5 0 0 0 107.75 51.25 L 91.25 51.25 A 0.5 0.5 0 0 0 90.75 51.75 L 90.75 67.25 A 0.5 0.5 0 0 0 91.25 67.75 Z M 91.25 50.75 L 107.75 50.75 A 0.5 0.5 0 0 0 108.25 50.25 L 108.25 34.75 A 0.5 0.5 0 0 0 107.75 34.25 L 91.25 34.25 A 0.5 0.5 0 0 0 90.75 34.75 L 90.75 50.25 A 0.5 0.5 0 0 0 91.25 50.75 Z M 91.25 33.75 L 107.75 33.75 A 0.5 0.5 0 0 0 108.25 33.25 L 108.25 17.75 A 0.5 0.5 0 0 0 107.75 17.25 L 91.25 17.25 A 0.5 0.5 0 0 0 90.75 17.75 L 90.75 33.25 A 0.5 0.5 0 0 0 91.25 33.75 Z M 91.25 16.75 L 107.75 16.75 A 0.5 0.5 0 0 0 108.25 16.25 L 108.25 0.75 A 0.5 0.5 0 0 0 107.75 0.25 L 91.25 0.25 A 0.5 0.5 0 0 0 90.75 0.75 L 90.75 16.25 A 0.5 0.5 0 0 0 91.25 16.75 Z M 109.25 84.75 L 125.75 84.75 A 0.5 0.5 0 0 0 126.25 84.25 L 126.25 68.75 A 0.5 0.5 0 0 0 125.75 68.25 L 109.25 68.25 A 0.5 0.5 0 0 0 108.75 68.75 L 108.75 84.25 A 0.5 0.5 0 0 0 109.25 84.75 Z M 109.25 67.75 L 125.75 67.75 A 0.5 0.5 0 0 0 126.25 67.25 L 126.25 51.75 A 0.5 0.5 0 0 0 125.75 51.25 L 109.25 51.25 A 0.5 0.5 0 0 0 108.75 51.75 L 108.75 67.25 A 0.5 0.5 0 0 0 109.25 67.75 Z M 39.1 49.4 L 51.9 49.4 A 0.5 0.5 0 0 0 52.4 48.9 L 52.4 36.1 A 0.5 0.5 0 0 0 51.9 35.6 L 39.1 35.6 A 0.5 0.5 0 0 0 38.6 36.1 L 38.6 48.9 A 0.5 0.5 0 0 0 39.1 49.4 Z M 39.1 32.4 L 51.9 32.4 A 0.5 0.5 0 0 0 52.4 31.9 L 52.4 19.1 A 0.5 0.5 0 0 0 51.9 18.6 L 39.1 18.6 A 0.5 0.5 0 0 0 38.6 19.1 L 38.6 31.9 A 0.5 0.5 0 0 0 39.1 32.4 Z M 39.1 15.4 L 51.9 15.4 A 0.5 0.5 0 0 0 52.4 14.9 L 52.4 2.1 A 0.5 0.5 0 0 0 51.9 1.6 L 39.1 1.6 A 0.5 0.5 0 0 0 38.6 2.1 L 38.6 14.9 A 0.5 0.5 0 0 0 39.1 15.4 Z M 57.1 49.4 L 69.9 49.4 A 0.5 0.5 0 0 0 70.4 48.9 L 70.4 36.1 A 0.5 0.5 0 0 0 69.9 35.6 L 57.1 35.6 A 0.5 0.5 0 0 0 56.6 36.1 L 56.6 48.9 A 0.5 0.5 0 0 0 57.1 49.4 Z M 57.1 32.4 L 69.9 32.4 A 0.5 0.5 0 0 0 70.4 31.9 L 70.4 19.1 A 0.5 0.5 0 0 0 69.9 18.6 L 57.1 18.6 A 0.5 0.5 0 0 0 56.6 19.1 L 56.6 31.9 A 0.5 0.5 0 0 0 57.1 32.4 Z M 57.1 15.4 L 69.9 15.4 A 0.5 0.5 0 0 0 70.4 14.9 L 70.4 2.1 A 0.5 0.5 0 0 0 69.9 1.6 L 57.1 1.6 A 0.5 0.5 0 0 0 56.6 2.1 L 56.6 14.9 A 0.5 0.5 0 0 0 57.1 15.4 Z M 3.1 49.4 L 15.9 49.4 A 0.5 0.5 0 0 0 16.4 48.9 L 16.4 36.1 A 0.5 0.5 0 0 0 15.9 35.6 L 3.1 35.6 A 0.5 0.5 0 0 0 2.6 36.1 L 2.6 48.9 A 0.5 0.5 0 0 0 3.1 49.4 Z M 3.1 32.4 L 15.9 32.4 A 0.5 0.5 0 0 0 16.4 31.9 L 16.4 19.1 A 0.5 0.5 0 0 0 15.9 18.6 L 3.1 18.6 A 0.5 0.5 0 0 0 2.6 19.1 L 2.6 31.9 A 0.5 0.5 0 0 0 3.1 32.4 Z M 3.1 15.4 L 15.9 15.4 A 0.5 0.5 0 0 0 16.4 14.9 L 16.4 2.1 A 0.5 0.5 0 0 0 15.9 1.6 L 3.1 1.6 A 0.5 0.5 0 0 0 2.6 2.1 L 2.6 14.9 A 0.5 0.5 0 0 0 3.1 15.4 Z M 39.1 83.4 L 51.9 83.4 A 0.5 0.5 0 0 0 52.4 82.9 L 52.4 70.1 A 0.5 0.5 0 0 0 51.9 69.6 L 39.1 69.6 A 0.5 0.5 0 0 0 38.6 70.1 L 38.6 82.9 A 0.5 0.5 0 0 0 39.1 83.4 Z M 39.1 66.4 L 51.9 66.4 A 0.5 0.5 0 0 0 52.4 65.9 L 52.4 53.1 A 0.5 0.5 0 0 0 51.9 52.6 L 39.1 52.6 A 0.5 0.5 0 0 0 38.6 53.1 L 38.6 65.9 A 0.5 0.5 0 0 0 39.1 66.4 Z M 57.1 83.4 L 69.9 83.4 A 0.5 0.5 0 0 0 70.4 82.9 L 70.4 70.1 A 0.5 0.5 0 0 0 69.9 69.6 L 57.1 69.6 A 0.5 0.5 0 0 0 56.6 70.1 L 56.6 82.9 A 0.5 0.5 0 0 0 57.1 83.4 Z M 57.1 66.4 L 69.9 66.4 A 0.5 0.5 0 0 0 70.4 65.9 L 70.4 53.1 A 0.5 0.5 0 0 0 69.9 52.6 L 57.1 52.6 A 0.5 0.5 0 0 0 56.6 53.1 L 56.6 65.9 A 0.5 0.5 0 0 0 57.1 66.4 Z M 21.1 49.4 L 33.9 49.4 A 0.5 0.5 0 0 0 34.4 48.9 L 34.4 36.1 A 0.5 0.5 0 0 0 33.9 35.6 L 21.1 35.6 A 0.5 0.5 0 0 0 20.6 36.1 L 20.6 48.9 A 0.5 0.5 0 0 0 21.1 49.4 Z M 21.1 32.4 L 33.9 32.4 A 0.5 0.5 0 0 0 34.4 31.9 L 34.4 19.1 A 0.5 0.5 0 0 0 33.9 18.6 L 21.1 18.6 A 0.5 0.5 0 0 0 20.6 19.1 L 20.6 31.9 A 0.5 0.5 0 0 0 21.1 32.4 Z M 21.1 15.4 L 33.9 15.4 A 0.5 0.5 0 0 0 34.4 14.9 L 34.4 2.1 A 0.5 0.5 0 0 0 33.9 1.6 L 21.1 1.6 A 0.5 0.5 0 0 0 20.6 2.1 L 20.6 14.9 A 0.5 0.5 0 0 0 21.1 15.4 Z M 75.1 49.4 L 87.9 49.4 A 0.5 0.5 0 0 0 88.4 48.9 L 88.4 36.1 A 0.5 0.5 0 0 0 87.9 35.6 L 75.1 35.6 A 0.5 0.5 0 0 0 74.6 36.1 L 74.6 48.9 A 0.5 0.5 0 0 0 75.1 49.4 Z M 75.1 32.4 L 87.9 32.4 A 0.5 0.5 0 0 0 88.4 31.9 L 88.4 19.1 A 0.5 0.5 0 0 0 87.9 18.6 L 75.1 18.6 A 0.5 0.5 0 0 0 74.6 19.1 L 74.6 31.9 A 0.5 0.5 0 0 0 75.1 32.4 Z M 75.1 15.4 L 87.9 15.4 A 0.5 0.5 0 0 0 88.4 14.9 L 88.4 2.1 A 0.5 0.5 0 0 0 87.9 1.6 L 75.1 1.6 A 0.5 0.5 0 0 0 74.6 2.1 L 74.6 14.9 A 0.5 0.5 0 0 0 75.1 15.4 Z M 93.1 49.4 L 105.9 49.4 A 0.5 0.5 0 0 0 106.4 48.9 L 106.4 36.1 A 0.5 0.5 0 0 0 105.9 35.6 L 93.1 35.6 A 0.5 0.5 0 0 0 92.6 36.1 L 92.6 48.9 A 0.5 0.5 0 0 0 93.1 49.4 Z M 93.1 32.4 L 105.9 32.4 A 0.5 0.5 0 0 0 106.4 31.9 L 106.4 19.1 A 0.5 0.5 0 0 0 105.9 18.6 L 93.1 18.6 A 0.5 0.5 0 0 0 92.6 19.1 L 92.6 31.9 A 0.5 0.5 0 0 0 93.1 32.4 Z M 93.1 15.4 L 105.9 15.4 A 0.5 0.5 0 0 0 106.4 14.9 L 106.4 2.1 A 0.5 0.5 0 0 0 105.9 1.6 L 93.1 1.6 A 0.5 0.5 0 0 0 92.6 2.1 L 92.6 14.9 A 0.5 0.5 0 0 0 93.1 15.4 Z M 3.1 83.4 L 15.9 83.4 A 0.5 0.5 0 0 0 16.4 82.9 L 16.4 70.1 A 0.5 0.5 0 0 0 15.9 69.6 L 3.1 69.6 A 0.5 0.5 0 0 0 2.6 70.1 L 2.6 82.9 A 0.5 0.5 0 0 0 3.1 83.4 Z M 3.1 66.4 L 15.9 66.4 A 0.5 0.5 0 0 0 16.4 65.9 L 16.4 53.1 A 0.5 0.5 0 0 0 15.9 52.6 L 3.1 52.6 A 0.5 0.5 0 0 0 2.6 53.1 L 2.6 65.9 A 0.5 0.5 0 0 0 3.1 66.4 Z M 21.1 83.4 L 33.9 83.4 A 0.5 0.5 0 0 0 34.4 82.9 L 34.4 70.1 A 0.5 0.5 0 0 0 33.9 69.6 L 21.1 69.6 A 0.5 0.5 0 0 0 20.6 70.1 L 20.6 82.9 A 0.5 0.5 0 0 0 21.1 83.4 Z M 21.1 66.4 L 33.9 66.4 A 0.5 0.5 0 0 0 34.4 65.9 L 34.4 53.1 A 0.5 0.5 0 0 0 33.9 52.6 L 21.1 52.6 A 0.5 0.5 0 0 0 20.6 53.1 L 20.6 65.9 A 0.5 0.5 0 0 0 21.1 66.4 Z M 75.1 83.4 L 87.9 83.4 A 0.5 0.5 0 0 0 88.4 82.9 L 88.4 70.1 A 0.5 0.5 0 0 0 87.9 69.6 L 75.1 69.6 A 0.5 0.5 0 0 0 74.6 70.1 L 74.6 82.9 A 0.5 0.5 0 0 0 75.1 83.4 Z M 75.1 66.4 L 87.9 66.4 A 0.5 0.5 0 0 0 88.4 65.9 L 88.4 53.1 A 0.5 0.5 0 0 0 87.9 52.6 L 75.1 52.6 A 0.5 0.5 0 0 0 74.6 53.1 L 74.6 65.9 A 0.5 0.5 0 0 0 75.1 66.4 Z M 93.1 83.4 L 105.9 83.4 A 0.5 0.5 0 0 0 106.4 82.9 L 106.4 70.1 A 0.5 0.5 0 0 0 105.9 69.6 L 93.1 69.6 A 0.5 0.5 0 0 0 92.6 70.1 L 92.6 82.9 A 0.5 0.5 0 0 0 93.1 83.4 Z M 93.1 66.4 L 105.9 66.4 A 0.5 0.5 0 0 0 106.4 65.9 L 106.4 53.1 A 0.5 0.5 0 0 0 105.9 52.6 L 93.1 52.6 A 0.5 0.5 0 0 0 92.6 53.1 L 92.6 65.9 A 0.5 0.5 0 0 0 93.1 66.4 Z M 111.1 83.4 L 123.9 83.4 A 0.5 0.5 0 0 0 124.4 82.9 L 124.4 70.1 A 0.5 0.5 0 0 0 123.9 69.6 L 111.1 69.6 A 0.5 0.5 0 0 0 110.6 70.1 L 110.6 82.9 A 0.5 0.5 0 0 0 111.1 83.4 Z M 111.1 66.4 L 123.9 66.4 A 0.5 0.5 0 0 0 124.4 65.9 L 124.4 53.1 A 0.5 0.5 0 0 0 123.9 52.6 L 111.1 52.6 A 0.5 0.5 0 0 0 110.6 53.1 L 110.6 65.9 A 0.5 0.5 0 0 0 111.1 66.4 Z" vector-effect="non-scaling-stroke"/></g></svg>